<?xml version="1.0" encoding="iso-8859-1"?>
<!-- Generator: Adobe Illustrator 16.0.0, SVG Export Plug-In . SVG Version: 6.00 Build 0)  -->
<!DOCTYPE svg PUBLIC "-//W3C//DTD SVG 1.1//EN" "http://www.w3.org/Graphics/SVG/1.1/DTD/svg11.dtd">
<svg version="1.1" id="Capa_1" xmlns="http://www.w3.org/2000/svg" xmlns:xlink="http://www.w3.org/1999/xlink" x="0px" y="0px"
	 width="580.115px" height="580.115px" viewBox="0 0 580.115 580.115" style="enable-background:new 0 0 580.115 580.115;"
	 xml:space="preserve">
<g>
	<g>
		<path d="M443.565,221.25c25.649,0,49.835,6.304,71.164,17.381c-11.646-59.878-32.858-109.56-45.38-130.307
			c-19.896-32.962-92.945-54.633-116.696-30.882c-23.752,23.752-91.158,21.383-91.158,21.383s-67.406,2.375-91.157-21.377
			c-23.752-23.752-96.8-2.081-116.696,30.881C33.752,141.287-8.121,247.297,1.383,351.222
			c9.504,103.924,58.201,70.668,97.987,38.005c39.786-32.662,52.858-61.169,162.125-61.169c12.748,0,24.137,0.403,34.456,1.138
			C315.896,266.667,374.514,221.25,443.565,221.25z"/>
		<path d="M518.688,262.145c-21.548-14.229-47.362-22.534-75.123-22.534c-59.603,0-110.252,38.201-128.887,91.439
			c-4.945,14.125-7.662,29.297-7.662,45.11c0,75.417,61.133,136.55,136.549,136.55c75.417,0,136.55-61.139,136.55-136.55
			C580.115,328.504,555.69,286.576,518.688,262.145z M529.209,397.623c0,3.379-2.735,6.12-6.12,6.12h-14.217h-31.609
			c-3.379,0-6.12,2.742-6.12,6.12v9.565v36.255c0,3.379-2.742,6.12-6.12,6.12h-42.926c-3.378,0-6.12-2.741-6.12-6.12v-45.826
			c0-3.378-2.741-6.12-6.12-6.12h-45.82c-3.384,0-6.12-2.741-6.12-6.12v-42.919c0-3.379,2.736-6.12,6.12-6.12h8.647h37.18
			c3.378,0,6.119-2.742,6.119-6.12v-45.827c0-3.378,2.742-6.119,6.12-6.119h42.926c3.379,0,6.12,2.741,6.12,6.119v45.827
			c0,3.378,2.742,6.12,6.12,6.12h44.541h1.279c3.385,0,6.12,2.741,6.12,6.12V397.623z"/>
	</g>
</g>
<g>
</g>
<g>
</g>
<g>
</g>
<g>
</g>
<g>
</g>
<g>
</g>
<g>
</g>
<g>
</g>
<g>
</g>
<g>
</g>
<g>
</g>
<g>
</g>
<g>
</g>
<g>
</g>
<g>
</g>
</svg>
